<?xml version="1.0" encoding="utf-8"?>
<!-- Generator: Adobe Illustrator 23.0.1, SVG Export Plug-In . SVG Version: 6.00 Build 0)  -->
<svg version="1.1" id="Warstwa_1" xmlns="http://www.w3.org/2000/svg" xmlns:xlink="http://www.w3.org/1999/xlink" x="0px" y="0px"
	 viewBox="0 0 288 200" style="enable-background:new 0 0 288 200;" xml:space="preserve">
<style type="text/css">
	.st0{fill:#0066A1;}
	.st1{fill:#0066A1;stroke:#0066A1;stroke-width:1.1328;stroke-linecap:round;stroke-linejoin:round;}
	.st2{fill:#FFFFFF;stroke:#0066A1;stroke-width:1.1328;stroke-linecap:round;stroke-linejoin:round;}
</style>
<g>
	<g>
		<path class="st0" d="M180.89,134.93h13.56v6.43h-13.56V134.93z"/>
		<g>
			<path class="st0" d="M106.5,120.25v27.78h-8v-21.16l-12.25,21.16h-6.79l-12.08-21.16l0,21.16h-8v-27.78h13.45l10.2,18.41
				l10.08-18.41H106.5z"/>
			<path class="st0" d="M131.66,127.21l0,20.83h-8.54v-20.83h-12.45v-6.96h33.24v6.96H131.66z"/>
			<path class="st0" d="M169.77,127.21v20.83h-8.54v-20.83h-12.45v-6.96h33.24v6.96H169.77z"/>
			<path class="st0" d="M227.92,128.75c-0.12-2.58-1.37-2.79-6.33-2.79c-0.42,0-0.67,0-1.08,0.04c-7.16,0.38-9.62-0.42-9.62,2.67
				c0,1.37,1.08,2.08,2.83,2.12c2.46,0.04,4.75,0.12,6.71,0.12c1.17,0,2.46-0.04,3.58-0.04c9.25,0,13.41,0.33,13.41,8.54
				c0,5.79-2.21,7.83-7.29,8.41c-1.5,0.17-5.91,0.46-12.54,0.46c-6.5,0-10.66-0.25-12.54-1.58c-2.67-1.92-2.29-4.21-2.33-7.54h8.37
				c0.04,1.25-0.33,2.71,2.62,2.96c0.71,0.04,2.79,0.13,5.75,0.13c7.83,0,9.46-0.04,9.46-2.54c0-2.5-2.12-2.46-5.29-2.5
				c-16.37-0.12-21.12,0.87-21.12-8.29c0-5.5,1.75-7.83,7.08-8.45c1.75-0.21,5.83-0.5,11.79-0.5c6.37,0,9.96,0,12.2,1.62
				c2.46,1.79,2.58,3.92,2.62,7.16H227.92z"/>
		</g>
		<g>
			<path class="st0" d="M230.64,16.92c1.85,0,3.43,0.66,4.74,1.98c1.31,1.32,1.97,2.91,1.97,4.77s-0.66,3.45-1.97,4.77
				c-1.31,1.32-2.9,1.98-4.74,1.98c-1.87,0-3.46-0.66-4.78-1.98c-1.32-1.32-1.98-2.91-1.98-4.78c0-1.86,0.66-3.45,1.98-4.77
				C227.18,17.58,228.78,16.92,230.64,16.92z M230.63,17.85c-1.58,0-2.92,0.57-4.04,1.7c-1.12,1.13-1.68,2.51-1.68,4.11
				s0.56,2.98,1.68,4.12c1.12,1.14,2.46,1.71,4.04,1.71c1.58,0,2.92-0.57,4.03-1.71c1.11-1.14,1.67-2.51,1.67-4.12
				c0-1.6-0.56-2.97-1.67-4.11C233.55,18.42,232.21,17.85,230.63,17.85z M227.43,27.37v-7.55h3.85c1.7,0,2.55,0.78,2.55,2.35
				c0,1.14-0.39,1.82-1.16,2.04c0.72,0.17,1.08,0.67,1.08,1.48v1.68h-1.59v-1.4c0-0.71-0.37-1.07-1.1-1.07h-2.03v2.46H227.43z
				 M229.02,23.55h2.03c0.84,0,1.26-0.4,1.26-1.2c0-0.78-0.39-1.17-1.16-1.17h-2.12V23.55z"/>
		</g>
		<polygon class="st1" points="126.6,39.11 150.48,39.11 138.07,17.61 68.85,17.61 81.26,39.11 105.15,39.11 139.95,99.38 
			161.39,99.38 		"/>
		<polygon class="st1" points="202.02,39.11 225.91,39.11 213.5,17.6 144.28,17.6 156.69,39.11 180.58,39.11 215.38,99.38 
			236.82,99.38 		"/>
		<polygon class="st1" points="100.07,47.9 81.08,47.9 58.69,86.67 71.11,108.18 102.99,52.95 		"/>
		<polygon class="st1" points="175.5,47.9 156.5,47.9 144.09,69.41 156.5,90.91 178.42,52.95 		"/>
		<polygon class="st2" points="131.67,47.9 145.41,47.9 150.48,39.11 126.6,39.11 		"/>
		<polygon class="st2" points="102.99,52.95 71.11,108.18 80.89,108.18 107.88,61.42 		"/>
		<polygon class="st2" points="139.95,99.38 134.87,108.18 156.31,108.18 161.39,99.38 		"/>
		<polygon class="st2" points="105.15,39.11 100.07,47.9 134.87,108.18 139.95,99.38 		"/>
		<polygon class="st2" points="81.26,39.11 76.19,47.9 100.07,47.9 105.15,39.11 		"/>
		<polygon class="st2" points="68.85,17.61 63.77,26.4 76.19,47.9 81.26,39.11 		"/>
		<polygon class="st2" points="215.38,99.38 210.3,108.17 231.74,108.17 236.82,99.38 		"/>
		<polygon class="st2" points="180.58,39.11 175.5,47.9 210.3,108.17 215.38,99.38 		"/>
		<polygon class="st2" points="156.69,39.11 151.61,47.9 175.5,47.9 180.58,39.11 		"/>
		<polygon class="st2" points="207.1,47.9 220.83,47.9 225.91,39.11 202.02,39.11 		"/>
		<polygon class="st2" points="178.42,52.95 156.5,90.91 161.39,99.38 183.31,61.42 		"/>
		<polygon class="st2" points="150.48,39.11 148.51,42.53 151.61,47.9 156.69,39.11 144.28,17.6 141.17,22.98 		"/>
	</g>
	<g>
		<path class="st0" d="M31.34,177.16h-3.23l1.97-9.32c0.26-1.18,0.36-1.56,0.92-3.79l0.33-1.25h-0.08l-0.64,1.18
			c-1.2,2.25-1.54,2.84-1.95,3.56l-5.81,9.63h-2.94l-1.77-9.55c-0.13-0.79-0.2-1.36-0.46-3.56l-0.13-1.18h-0.1
			c-0.49,3.12-0.61,3.74-0.85,4.97l-2,9.32h-3.23l3.64-17.08h5.27l1.36,7.91c0.1,0.51,0.33,2.36,0.59,4.74h0.1l0.64-1.18
			c1.13-2.18,1.46-2.77,1.89-3.53l4.71-7.94h5.38L31.34,177.16z"/>
		<path class="st0" d="M49.31,177.16h-3.28l1.56-7.3h-7.91l-1.56,7.3h-3.28l3.64-17.08h3.28l-1.48,6.99h7.91l1.48-6.99h3.28
			L49.31,177.16z"/>
		<path class="st0" d="M64.73,165.2l-0.51,2.43l-7.96,7.35h6.4l-0.46,2.18h-9.81l0.54-2.51l7.89-7.3h-5.84l0.46-2.15H64.73z"/>
		<path class="st0" d="M80.32,167.38h-4.56l-1.28,5.99c-0.05,0.33-0.13,0.85-0.13,1c0,0.51,0.28,0.72,1,0.72
			c1.2,0,1.64-0.56,1.95-2.54h2.43c-0.44,2.02-0.56,2.46-0.92,3.07c-0.74,1.2-1.92,1.69-4.22,1.69c-1.23,0-1.97-0.15-2.46-0.51
			c-0.51-0.38-0.82-1-0.82-1.66c0-0.41,0-0.49,0.2-1.36l1.36-6.4h-1.56l0.46-2.18h1.56l0.56-2.66h2.92l-0.59,2.66h4.56L80.32,167.38
			z"/>
		<path class="st0" d="M92,165.82c0.59,0.51,0.92,1.36,0.92,2.33c0,1.82-0.97,5.71-1.79,7.12c-0.84,1.51-2.33,2.05-5.53,2.05
			c-2.1,0-3.17-0.23-3.89-0.79c-0.61-0.49-0.95-1.38-0.95-2.48c0-1.08,0.59-4.02,1.15-5.71c0.54-1.64,1.51-2.59,3.02-3
			c0.67-0.18,1.79-0.28,3.17-0.28C90.36,165.05,91.31,165.23,92,165.82z M84.7,169.07c-0.46,1.36-0.95,3.74-0.95,4.61
			c0,1.13,0.44,1.38,2.28,1.38c1.82,0,2.61-0.56,3.1-2.25c0.44-1.49,0.79-3.38,0.79-4.1c0-1.15-0.41-1.41-2.3-1.41
			C85.85,167.3,85.16,167.71,84.7,169.07z"/>
		<path class="st0" d="M104.39,177.16h-3.28l3.02-14.21h-4.94l0.61-2.87h13.26l-0.61,2.87h-5.04L104.39,177.16z"/>
		<path class="st0" d="M126.05,177.16h-3.28l1.56-7.3h-7.91l-1.56,7.3h-3.28l3.64-17.08h3.28l-1.48,6.99h7.91l1.48-6.99h3.28
			L126.05,177.16z"/>
		<path class="st0" d="M140.95,165.2l-0.51,2.43l-7.96,7.35h6.4l-0.46,2.18h-9.81l0.54-2.51l7.89-7.3h-5.84l0.46-2.15H140.95z"/>
		<path class="st0" d="M161.92,171.07c-0.05,0.26-0.1,0.49-0.13,0.59c-0.62,2.92-1.18,3.94-2.59,4.76c-1.23,0.74-2.33,0.9-6.04,0.9
			c-2.82,0-3.76-0.23-4.79-1.15c-0.64-0.59-1.05-1.66-1.05-2.79c0-0.95,0.56-4.33,1.13-6.79c0.82-3.53,1.59-4.84,3.46-5.79
			c1.33-0.69,2.59-0.87,5.89-0.87c2.2,0,2.82,0.05,3.56,0.33c1.28,0.49,1.87,1.41,1.87,2.94c0,0.59-0.08,1.1-0.33,2.56h-3.25
			c0.18-1,0.23-1.31,0.23-1.69c0-1.08-0.56-1.33-2.94-1.33c-3.07,0-4.02,0.44-4.61,2.1c-0.54,1.54-1.56,6.76-1.56,7.94
			c0,1.38,0.67,1.72,3.46,1.72c3.35,0,3.92-0.44,4.46-3.43H161.92z"/>
		<path class="st0" d="M174.62,165.82c0.59,0.51,0.92,1.36,0.92,2.33c0,1.82-0.97,5.71-1.79,7.12c-0.84,1.51-2.33,2.05-5.53,2.05
			c-2.1,0-3.17-0.23-3.89-0.79c-0.62-0.49-0.95-1.38-0.95-2.48c0-1.08,0.59-4.02,1.15-5.71c0.54-1.64,1.51-2.59,3.02-3
			c0.67-0.18,1.79-0.28,3.17-0.28C172.99,165.05,173.93,165.23,174.62,165.82z M167.33,169.07c-0.46,1.36-0.95,3.74-0.95,4.61
			c0,1.13,0.44,1.38,2.28,1.38c1.82,0,2.61-0.56,3.1-2.25c0.44-1.49,0.79-3.38,0.79-4.1c0-1.15-0.41-1.41-2.3-1.41
			C168.48,167.3,167.79,167.71,167.33,169.07z"/>
		<path class="st0" d="M181.77,165.2l-0.49,1.84h0.08c0.84-1.43,2-2,4.05-2c1.92,0,3.15,0.79,3.15,2.02v0.2h0.05
			c0.87-1.59,2.07-2.23,4.25-2.23c2.25,0,3.41,0.87,3.41,2.59c0,0.46-0.05,0.92-0.21,1.61l-1.69,7.91h-2.89l1.54-7.3
			c0.13-0.54,0.2-1.1,0.2-1.36c0-0.79-0.49-1.1-1.69-1.1c-1.15,0-2.15,0.38-2.61,1.02c-0.26,0.33-0.49,0.95-0.64,1.74l-1.48,6.99
			h-2.92l1.59-7.4c0.1-0.51,0.21-1.18,0.21-1.36c0-0.67-0.54-1-1.69-1c-1.87,0-2.87,0.85-3.28,2.82l-1.48,6.94h-2.89l2.54-11.96
			H181.77z"/>
		<path class="st0" d="M202.87,165.2l-0.49,1.84h0.08c0.84-1.43,2-2,4.05-2c1.92,0,3.15,0.79,3.15,2.02v0.2h0.05
			c0.87-1.59,2.07-2.23,4.25-2.23c2.25,0,3.41,0.87,3.41,2.59c0,0.46-0.05,0.92-0.2,1.61l-1.69,7.91h-2.89l1.54-7.3
			c0.13-0.54,0.2-1.1,0.2-1.36c0-0.79-0.49-1.1-1.69-1.1c-1.15,0-2.15,0.38-2.61,1.02c-0.26,0.33-0.49,0.95-0.64,1.74l-1.48,6.99
			h-2.92l1.59-7.4c0.1-0.51,0.21-1.18,0.21-1.36c0-0.67-0.54-1-1.69-1c-1.87,0-2.87,0.85-3.28,2.82l-1.49,6.94h-2.89l2.54-11.96
			H202.87z"/>
		<path class="st0" d="M229.14,177.16h-2.89l0.59-2.05l-0.05-0.03c-0.87,1.61-2.07,2.23-4.28,2.23c-2.15,0-3.35-0.97-3.35-2.69
			c0-0.38,0.05-0.92,0.15-1.38l1.72-8.04h2.89l-1.56,7.35c-0.08,0.38-0.18,1.15-0.18,1.36c0,0.74,0.56,1.08,1.74,1.08
			c1.31,0,2.13-0.36,2.77-1.23c0.31-0.44,0.46-0.87,0.72-2.02l1.38-6.53h2.89L229.14,177.16z"/>
		<path class="st0" d="M238.07,165.2l-0.54,2.02h0.05c0.84-1.54,2.05-2.18,4.15-2.18c2.38,0,3.61,0.85,3.61,2.48
			c0,0.41-0.03,0.67-0.21,1.48l-1.74,8.14h-2.89l1.54-7.19c0.15-0.82,0.2-1.13,0.2-1.46c0-0.82-0.49-1.13-1.77-1.13
			c-1.92,0-3.02,0.87-3.43,2.69l-1.49,7.09h-2.94l2.54-11.96H238.07z"/>
		<path class="st0" d="M249.21,177.16h-2.89l2.54-11.96h2.92L249.21,177.16z M252.33,162.54h-2.92l0.54-2.46h2.89L252.33,162.54z"/>
		<path class="st0" d="M262.45,167.38h-4.56l-1.28,5.99c-0.05,0.33-0.13,0.85-0.13,1c0,0.51,0.28,0.72,1,0.72
			c1.2,0,1.64-0.56,1.95-2.54h2.43c-0.44,2.02-0.56,2.46-0.92,3.07c-0.74,1.2-1.92,1.69-4.22,1.69c-1.23,0-1.97-0.15-2.46-0.51
			c-0.51-0.38-0.82-1-0.82-1.66c0-0.41,0-0.49,0.21-1.36l1.36-6.4h-1.56l0.46-2.18h1.56l0.56-2.66h2.92l-0.59,2.66h4.56
			L262.45,167.38z"/>
		<path class="st0" d="M269.57,177.9c-1.74,3.81-2.71,4.56-5.76,4.56c-0.38,0-0.61,0-1-0.05l0.44-2.1l0.54,0.03
			c1.02,0,1.56-0.33,2.2-1.36c0.36-0.59,0.62-1.13,0.87-1.82h-1.46l-1.36-11.96h3.07l0.41,5.07l0.2,2.54l0.1,1.28l0.08,1.25h0.08
			l0.84-2.02c0.15-0.36,0.15-0.36,1.33-3.05l2.23-5.07h3.02L269.57,177.9z"/>
	</g>
</g>
</svg>
